<mxfile host="Electron" modified="2023-05-25T23:10:44.825Z" agent="Mozilla/5.0 (Windows NT 10.0; Win64; x64) AppleWebKit/537.36 (KHTML, like Gecko) draw.io/21.2.8 Chrome/112.0.5615.165 Electron/24.2.0 Safari/537.36" etag="pYsdAgohKUk8PnHCc1PP" version="21.2.8" type="device">
  <diagram name="Page-1" id="rRFc9bHcIBAohH5S0odY">
    <mxGraphModel dx="669" dy="1254" grid="1" gridSize="10" guides="1" tooltips="1" connect="1" arrows="1" fold="1" page="1" pageScale="1" pageWidth="850" pageHeight="1100" math="0" shadow="0">
      <root>
        <mxCell id="0" />
        <mxCell id="1" parent="0" />
        <mxCell id="LMoRLBbi18-cdOYfBMGN-26" value="&lt;b&gt;&lt;font style=&quot;font-size: 14px;&quot;&gt;16-bit key&lt;/font&gt;&lt;/b&gt;" style="rounded=1;whiteSpace=wrap;html=1;arcSize=13;fillColor=#FBC538;" parent="1" vertex="1">
          <mxGeometry x="390" y="70" width="160" height="60" as="geometry" />
        </mxCell>
        <mxCell id="LMoRLBbi18-cdOYfBMGN-27" value="&lt;b&gt;w0,w1&lt;br&gt;&lt;/b&gt;" style="rounded=1;whiteSpace=wrap;html=1;arcSize=13;fillColor=#FBC538;" parent="1" vertex="1">
          <mxGeometry x="390" y="180" width="160" height="60" as="geometry" />
        </mxCell>
        <mxCell id="LMoRLBbi18-cdOYfBMGN-28" style="edgeStyle=orthogonalEdgeStyle;rounded=0;orthogonalLoop=1;jettySize=auto;html=1;strokeColor=#FF0044;strokeWidth=2;" parent="1" edge="1">
          <mxGeometry relative="1" as="geometry">
            <mxPoint x="469.55" y="180" as="targetPoint" />
            <mxPoint x="469.88" y="130" as="sourcePoint" />
            <Array as="points">
              <mxPoint x="469.55" y="150" />
              <mxPoint x="469.55" y="150" />
            </Array>
          </mxGeometry>
        </mxCell>
        <mxCell id="LMoRLBbi18-cdOYfBMGN-30" style="edgeStyle=orthogonalEdgeStyle;rounded=0;orthogonalLoop=1;jettySize=auto;html=1;strokeColor=#FF0044;strokeWidth=2;entryX=0.5;entryY=0;entryDx=0;entryDy=0;exitX=0.5;exitY=1;exitDx=0;exitDy=0;" parent="1" source="LMoRLBbi18-cdOYfBMGN-27" edge="1">
          <mxGeometry relative="1" as="geometry">
            <mxPoint x="470" y="290" as="targetPoint" />
            <mxPoint x="470" y="250" as="sourcePoint" />
            <Array as="points" />
          </mxGeometry>
        </mxCell>
        <mxCell id="2fboy8t-7ojy_MJ6d2ZT-1" value="&lt;b&gt;16 Bit Key&lt;/b&gt;" style="text;html=1;align=center;verticalAlign=middle;resizable=0;points=[];autosize=1;strokeColor=none;fillColor=none;" parent="1" vertex="1">
          <mxGeometry x="430" y="28" width="80" height="30" as="geometry" />
        </mxCell>
        <mxCell id="N9HZh_SBiDMYwx160Leo-3" value="&lt;b&gt;8 bit , 8 bit&lt;/b&gt;" style="text;html=1;align=center;verticalAlign=middle;resizable=0;points=[];autosize=1;strokeColor=none;fillColor=none;" vertex="1" parent="1">
          <mxGeometry x="430" y="180" width="80" height="30" as="geometry" />
        </mxCell>
        <mxCell id="N9HZh_SBiDMYwx160Leo-5" style="edgeStyle=orthogonalEdgeStyle;rounded=0;orthogonalLoop=1;jettySize=auto;html=1;strokeColor=#FF0044;strokeWidth=2;entryX=0.5;entryY=0;entryDx=0;entryDy=0;exitX=0.5;exitY=1;exitDx=0;exitDy=0;" edge="1" parent="1">
          <mxGeometry relative="1" as="geometry">
            <mxPoint x="469.5" y="510" as="targetPoint" />
            <mxPoint x="469.5" y="460" as="sourcePoint" />
            <Array as="points" />
          </mxGeometry>
        </mxCell>
        <mxCell id="N9HZh_SBiDMYwx160Leo-6" value="&lt;b&gt;Expand Key&lt;br&gt;&lt;/b&gt;" style="rounded=1;whiteSpace=wrap;html=1;arcSize=13;fillColor=#FBC538;" vertex="1" parent="1">
          <mxGeometry x="390" y="290" width="160" height="60" as="geometry" />
        </mxCell>
        <mxCell id="N9HZh_SBiDMYwx160Leo-7" value="&lt;b&gt;w0,w1&lt;br&gt;w2,w3&lt;br&gt;w4,w5&lt;/b&gt;" style="text;html=1;align=center;verticalAlign=middle;resizable=0;points=[];autosize=1;strokeColor=#E95CFF;fillColor=none;" vertex="1" parent="1">
          <mxGeometry x="620" y="410" width="60" height="60" as="geometry" />
        </mxCell>
        <mxCell id="N9HZh_SBiDMYwx160Leo-8" style="edgeStyle=orthogonalEdgeStyle;rounded=0;orthogonalLoop=1;jettySize=auto;html=1;strokeColor=#FF0044;strokeWidth=2;entryX=0.5;entryY=0;entryDx=0;entryDy=0;exitX=0.5;exitY=1;exitDx=0;exitDy=0;" edge="1" parent="1">
          <mxGeometry relative="1" as="geometry">
            <mxPoint x="469.5" y="400" as="targetPoint" />
            <mxPoint x="469.5" y="350" as="sourcePoint" />
            <Array as="points" />
          </mxGeometry>
        </mxCell>
        <mxCell id="N9HZh_SBiDMYwx160Leo-9" value="&lt;b&gt;w2,w3&lt;br&gt;&lt;/b&gt;" style="rounded=1;whiteSpace=wrap;html=1;arcSize=13;fillColor=#FBC538;" vertex="1" parent="1">
          <mxGeometry x="390" y="400" width="160" height="60" as="geometry" />
        </mxCell>
        <mxCell id="N9HZh_SBiDMYwx160Leo-10" value="&lt;b&gt;Expand Key&lt;br&gt;&lt;/b&gt;" style="rounded=1;whiteSpace=wrap;html=1;arcSize=13;fillColor=#FBC538;" vertex="1" parent="1">
          <mxGeometry x="390" y="510" width="160" height="60" as="geometry" />
        </mxCell>
        <mxCell id="N9HZh_SBiDMYwx160Leo-12" value="&lt;b&gt;w4,w5&lt;br&gt;&lt;/b&gt;" style="rounded=1;whiteSpace=wrap;html=1;arcSize=13;fillColor=#FBC538;" vertex="1" parent="1">
          <mxGeometry x="390" y="610" width="160" height="60" as="geometry" />
        </mxCell>
        <mxCell id="N9HZh_SBiDMYwx160Leo-13" style="edgeStyle=orthogonalEdgeStyle;rounded=0;orthogonalLoop=1;jettySize=auto;html=1;strokeColor=#FF0044;strokeWidth=2;exitX=0.5;exitY=1;exitDx=0;exitDy=0;entryX=0.5;entryY=0;entryDx=0;entryDy=0;" edge="1" parent="1" target="N9HZh_SBiDMYwx160Leo-12">
          <mxGeometry relative="1" as="geometry">
            <mxPoint x="470" y="600" as="targetPoint" />
            <mxPoint x="469.5" y="570" as="sourcePoint" />
            <Array as="points" />
          </mxGeometry>
        </mxCell>
        <mxCell id="N9HZh_SBiDMYwx160Leo-14" value="" style="endArrow=none;dashed=1;html=1;rounded=0;" edge="1" parent="1">
          <mxGeometry width="50" height="50" relative="1" as="geometry">
            <mxPoint x="190" y="400" as="sourcePoint" />
            <mxPoint x="390" y="320" as="targetPoint" />
          </mxGeometry>
        </mxCell>
        <mxCell id="N9HZh_SBiDMYwx160Leo-15" value="" style="endArrow=none;dashed=1;html=1;rounded=0;" edge="1" parent="1">
          <mxGeometry width="50" height="50" relative="1" as="geometry">
            <mxPoint x="190" y="400" as="sourcePoint" />
            <mxPoint x="390" y="540" as="targetPoint" />
          </mxGeometry>
        </mxCell>
        <mxCell id="N9HZh_SBiDMYwx160Leo-16" value="&lt;b&gt;&lt;font style=&quot;font-size: 14px;&quot;&gt;W&lt;/font&gt;&lt;br&gt;&lt;/b&gt;" style="rounded=1;whiteSpace=wrap;html=1;arcSize=13;fillColor=#FBC538;" vertex="1" parent="1">
          <mxGeometry x="30" y="390" width="160" height="40" as="geometry" />
        </mxCell>
        <mxCell id="N9HZh_SBiDMYwx160Leo-17" value="&lt;b&gt;&lt;br&gt;&lt;/b&gt;" style="rounded=1;whiteSpace=wrap;html=1;arcSize=13;fillColor=#FBC538;" vertex="1" parent="1">
          <mxGeometry x="30" y="470" width="160" height="40" as="geometry" />
        </mxCell>
        <mxCell id="N9HZh_SBiDMYwx160Leo-18" value="" style="endArrow=none;html=1;rounded=0;exitX=0.5;exitY=1;exitDx=0;exitDy=0;" edge="1" parent="1" source="N9HZh_SBiDMYwx160Leo-17">
          <mxGeometry width="50" height="50" relative="1" as="geometry">
            <mxPoint x="60" y="520" as="sourcePoint" />
            <mxPoint x="110" y="470" as="targetPoint" />
          </mxGeometry>
        </mxCell>
        <mxCell id="N9HZh_SBiDMYwx160Leo-19" value="&lt;b&gt;&lt;font style=&quot;font-size: 18px;&quot;&gt;N0&lt;/font&gt;&lt;/b&gt;" style="text;html=1;align=center;verticalAlign=middle;resizable=0;points=[];autosize=1;strokeColor=none;fillColor=none;" vertex="1" parent="1">
          <mxGeometry x="40" y="470" width="50" height="40" as="geometry" />
        </mxCell>
        <mxCell id="N9HZh_SBiDMYwx160Leo-20" value="&lt;b&gt;&lt;font style=&quot;font-size: 18px;&quot;&gt;N1&lt;/font&gt;&lt;/b&gt;" style="text;html=1;align=center;verticalAlign=middle;resizable=0;points=[];autosize=1;strokeColor=none;fillColor=none;" vertex="1" parent="1">
          <mxGeometry x="120" y="470" width="50" height="40" as="geometry" />
        </mxCell>
        <mxCell id="N9HZh_SBiDMYwx160Leo-21" style="edgeStyle=orthogonalEdgeStyle;rounded=0;orthogonalLoop=1;jettySize=auto;html=1;strokeColor=#FF0044;strokeWidth=2;exitX=0.5;exitY=1;exitDx=0;exitDy=0;" edge="1" parent="1">
          <mxGeometry relative="1" as="geometry">
            <mxPoint x="110" y="470" as="targetPoint" />
            <mxPoint x="109.38" y="430" as="sourcePoint" />
            <Array as="points" />
          </mxGeometry>
        </mxCell>
        <mxCell id="N9HZh_SBiDMYwx160Leo-25" style="rounded=0;orthogonalLoop=1;jettySize=auto;html=1;strokeColor=#FF0044;strokeWidth=2;exitX=0.5;exitY=1;exitDx=0;exitDy=0;" edge="1" parent="1">
          <mxGeometry relative="1" as="geometry">
            <mxPoint x="80" y="560" as="targetPoint" />
            <mxPoint x="144.37" y="510" as="sourcePoint" />
          </mxGeometry>
        </mxCell>
        <mxCell id="N9HZh_SBiDMYwx160Leo-26" style="rounded=0;orthogonalLoop=1;jettySize=auto;html=1;strokeColor=#FF0044;strokeWidth=2;exitX=0.5;exitY=1;exitDx=0;exitDy=0;" edge="1" parent="1">
          <mxGeometry relative="1" as="geometry">
            <mxPoint x="160" y="560" as="targetPoint" />
            <mxPoint x="74.37" y="510" as="sourcePoint" />
          </mxGeometry>
        </mxCell>
        <mxCell id="N9HZh_SBiDMYwx160Leo-27" value="&lt;b&gt;&lt;br&gt;&lt;/b&gt;" style="rounded=1;whiteSpace=wrap;html=1;arcSize=13;fillColor=#FBC538;" vertex="1" parent="1">
          <mxGeometry x="30" y="560" width="160" height="40" as="geometry" />
        </mxCell>
        <mxCell id="N9HZh_SBiDMYwx160Leo-28" value="&lt;b&gt;&lt;font style=&quot;font-size: 18px;&quot;&gt;N1&lt;/font&gt;&lt;/b&gt;" style="text;html=1;align=center;verticalAlign=middle;resizable=0;points=[];autosize=1;strokeColor=none;fillColor=none;" vertex="1" parent="1">
          <mxGeometry x="50" y="560" width="50" height="40" as="geometry" />
        </mxCell>
        <mxCell id="N9HZh_SBiDMYwx160Leo-29" value="&lt;b&gt;&lt;font style=&quot;font-size: 18px;&quot;&gt;N0&lt;/font&gt;&lt;/b&gt;" style="text;html=1;align=center;verticalAlign=middle;resizable=0;points=[];autosize=1;strokeColor=none;fillColor=none;" vertex="1" parent="1">
          <mxGeometry x="130" y="560" width="50" height="40" as="geometry" />
        </mxCell>
        <mxCell id="N9HZh_SBiDMYwx160Leo-31" value="" style="endArrow=none;html=1;rounded=0;exitX=0.5;exitY=1;exitDx=0;exitDy=0;" edge="1" parent="1">
          <mxGeometry width="50" height="50" relative="1" as="geometry">
            <mxPoint x="109.38" y="600" as="sourcePoint" />
            <mxPoint x="109.38" y="560" as="targetPoint" />
          </mxGeometry>
        </mxCell>
        <mxCell id="N9HZh_SBiDMYwx160Leo-33" style="edgeStyle=orthogonalEdgeStyle;rounded=0;orthogonalLoop=1;jettySize=auto;html=1;strokeColor=#FF0044;strokeWidth=2;exitX=0.5;exitY=1;exitDx=0;exitDy=0;" edge="1" parent="1">
          <mxGeometry relative="1" as="geometry">
            <mxPoint x="110" y="650" as="targetPoint" />
            <mxPoint x="109.41999999999999" y="600" as="sourcePoint" />
            <Array as="points" />
          </mxGeometry>
        </mxCell>
        <mxCell id="N9HZh_SBiDMYwx160Leo-34" value="&lt;b&gt;&lt;font style=&quot;font-size: 14px;&quot;&gt;S-box&lt;/font&gt;&lt;/b&gt;" style="text;html=1;align=center;verticalAlign=middle;resizable=0;points=[];autosize=1;strokeColor=none;fillColor=none;" vertex="1" parent="1">
          <mxGeometry x="45" y="610" width="60" height="30" as="geometry" />
        </mxCell>
        <mxCell id="N9HZh_SBiDMYwx160Leo-36" value="&lt;b&gt;&lt;br&gt;&lt;/b&gt;" style="rounded=1;whiteSpace=wrap;html=1;arcSize=13;fillColor=#FBC538;" vertex="1" parent="1">
          <mxGeometry x="30" y="650" width="160" height="40" as="geometry" />
        </mxCell>
        <mxCell id="N9HZh_SBiDMYwx160Leo-37" value="&lt;b&gt;&lt;font style=&quot;font-size: 18px;&quot;&gt;-N1&lt;/font&gt;&lt;/b&gt;" style="text;html=1;align=center;verticalAlign=middle;resizable=0;points=[];autosize=1;strokeColor=none;fillColor=none;" vertex="1" parent="1">
          <mxGeometry x="50" y="650" width="50" height="40" as="geometry" />
        </mxCell>
        <mxCell id="N9HZh_SBiDMYwx160Leo-38" value="&lt;b&gt;&lt;font style=&quot;font-size: 18px;&quot;&gt;-N0&lt;/font&gt;&lt;/b&gt;" style="text;html=1;align=center;verticalAlign=middle;resizable=0;points=[];autosize=1;strokeColor=none;fillColor=none;" vertex="1" parent="1">
          <mxGeometry x="130" y="650" width="50" height="40" as="geometry" />
        </mxCell>
        <mxCell id="N9HZh_SBiDMYwx160Leo-39" value="" style="endArrow=none;html=1;rounded=0;exitX=0.5;exitY=1;exitDx=0;exitDy=0;" edge="1" parent="1">
          <mxGeometry width="50" height="50" relative="1" as="geometry">
            <mxPoint x="109.38" y="690" as="sourcePoint" />
            <mxPoint x="109.38" y="650" as="targetPoint" />
          </mxGeometry>
        </mxCell>
        <mxCell id="N9HZh_SBiDMYwx160Leo-40" value="&lt;b&gt;&lt;br&gt;&lt;/b&gt;" style="rounded=1;whiteSpace=wrap;html=1;arcSize=13;fillColor=#FBC538;" vertex="1" parent="1">
          <mxGeometry x="240" y="745" width="100" height="40" as="geometry" />
        </mxCell>
        <mxCell id="N9HZh_SBiDMYwx160Leo-41" value="&lt;b&gt;&lt;font style=&quot;font-size: 18px;&quot;&gt;Constant&lt;/font&gt;&lt;/b&gt;" style="text;html=1;align=center;verticalAlign=middle;resizable=0;points=[];autosize=1;strokeColor=none;fillColor=none;" vertex="1" parent="1">
          <mxGeometry x="240" y="745" width="100" height="40" as="geometry" />
        </mxCell>
        <mxCell id="N9HZh_SBiDMYwx160Leo-44" style="edgeStyle=orthogonalEdgeStyle;rounded=0;orthogonalLoop=1;jettySize=auto;html=1;strokeColor=#FF0044;strokeWidth=2;exitX=0.5;exitY=1;exitDx=0;exitDy=0;" edge="1" parent="1">
          <mxGeometry relative="1" as="geometry">
            <mxPoint x="110" y="740" as="targetPoint" />
            <mxPoint x="109.22999999999999" y="690" as="sourcePoint" />
            <Array as="points" />
          </mxGeometry>
        </mxCell>
        <mxCell id="N9HZh_SBiDMYwx160Leo-45" value="&lt;b&gt;&lt;font style=&quot;font-size: 14px;&quot;&gt;XOR&lt;/font&gt;&lt;/b&gt;" style="ellipse;whiteSpace=wrap;html=1;aspect=fixed;" vertex="1" parent="1">
          <mxGeometry x="85" y="740" width="50" height="50" as="geometry" />
        </mxCell>
        <mxCell id="N9HZh_SBiDMYwx160Leo-46" style="edgeStyle=orthogonalEdgeStyle;rounded=0;orthogonalLoop=1;jettySize=auto;html=1;strokeColor=#FF0044;strokeWidth=2;exitX=0.5;exitY=1;exitDx=0;exitDy=0;" edge="1" parent="1">
          <mxGeometry relative="1" as="geometry">
            <mxPoint x="110" y="470" as="targetPoint" />
            <mxPoint x="109.38" y="430" as="sourcePoint" />
            <Array as="points" />
          </mxGeometry>
        </mxCell>
        <mxCell id="N9HZh_SBiDMYwx160Leo-47" style="edgeStyle=orthogonalEdgeStyle;rounded=0;orthogonalLoop=1;jettySize=auto;html=1;strokeColor=#FF0044;strokeWidth=2;entryX=1;entryY=0.5;entryDx=0;entryDy=0;" edge="1" parent="1" target="N9HZh_SBiDMYwx160Leo-45">
          <mxGeometry relative="1" as="geometry">
            <mxPoint x="239.23000000000002" y="810" as="targetPoint" />
            <mxPoint x="238" y="765" as="sourcePoint" />
            <Array as="points" />
          </mxGeometry>
        </mxCell>
        <mxCell id="N9HZh_SBiDMYwx160Leo-49" value="&lt;b&gt;&lt;span style=&quot;font-size: 14px;&quot;&gt;-W&lt;/span&gt;&lt;br&gt;&lt;/b&gt;" style="rounded=1;whiteSpace=wrap;html=1;arcSize=13;fillColor=#FBC538;" vertex="1" parent="1">
          <mxGeometry x="30" y="820" width="160" height="40" as="geometry" />
        </mxCell>
        <mxCell id="N9HZh_SBiDMYwx160Leo-50" style="edgeStyle=orthogonalEdgeStyle;rounded=0;orthogonalLoop=1;jettySize=auto;html=1;strokeColor=#FF0044;strokeWidth=2;exitX=0.5;exitY=1;exitDx=0;exitDy=0;" edge="1" parent="1">
          <mxGeometry relative="1" as="geometry">
            <mxPoint x="110" y="820" as="targetPoint" />
            <mxPoint x="109.22999999999999" y="790" as="sourcePoint" />
            <Array as="points" />
          </mxGeometry>
        </mxCell>
      </root>
    </mxGraphModel>
  </diagram>
</mxfile>
